<?xml version="1.0" encoding="UTF-8" standalone="no"?><!DOCTYPE svg PUBLIC "-//W3C//DTD SVG 1.1//EN" "http://www.w3.org/Graphics/SVG/1.1/DTD/svg11.dtd"><!-- Generated by graphviz version 2.40.1 (20161225.0304)
 --><!-- Title: %0 Pages: 1 --><svg xmlns="http://www.w3.org/2000/svg" xmlns:xlink="http://www.w3.org/1999/xlink" width="1088pt" height="218pt" viewBox="0.00 0.00 1087.93 218.00">
<g id="graph0" class="graph" transform="scale(1 1) rotate(0) translate(4 214)">
<title>%0</title>
<polygon fill="#ffffff" stroke="transparent" points="-4,4 -4,-214 1083.93,-214 1083.93,4 -4,4"/>
<text text-anchor="middle" x="539.965" y="-10" font-family="times" font-size="20.00" fill="#000000">Epoch 1</text>
<!-- c_{k&#45;2} -->
<g id="node1" class="node">
<title>c_{k-2}</title>
<polygon fill="#b4eeb4" stroke="#000000" stroke-width="2" points="80.5984,-68 .1336,-68 .1336,-32 80.5984,-32 80.5984,-68"/>
<text text-anchor="middle" x="40.366" y="-44" font-family="times" font-size="20.00" fill="#000000">c_{k-2}</text>
</g>
<!-- 0 -->
<g id="node3" class="node">
<title>0</title>
<polygon fill="#add8e6" stroke="#000000" stroke-width="2" points="308.033,-84 272.033,-84 272.033,-48 308.033,-48 308.033,-84"/>
<text text-anchor="middle" x="290.033" y="-60" font-family="times" font-size="20.00" fill="#000000">0</text>
</g>
<!-- c_{k&#45;2}&#45;&gt;0 -->
<g id="edge2" class="edge">
<title>c_{k-2}-&gt;0</title>
<path fill="none" stroke="#000000" d="M80.8904,-48.0675C116.2084,-46.8995 168.7572,-46.4063 214.266,-51 230.1069,-52.599 247.5523,-55.9415 261.7062,-59.0662"/>
<polygon fill="#c0c0c0" stroke="#000000" points="261.278,-62.5587 271.8071,-61.3808 262.8415,-55.7356 261.278,-62.5587"/>
<text text-anchor="middle" x="156.499" y="-57" font-family="times" font-size="20.00" fill="#000000">dil_conv_5x5</text>
</g>
<!-- c_{k&#45;1} -->
<g id="node2" class="node">
<title>c_{k-1}</title>
<polygon fill="#b4eeb4" stroke="#000000" stroke-width="2" points="80.5984,-154 .1336,-154 .1336,-118 80.5984,-118 80.5984,-154"/>
<text text-anchor="middle" x="40.366" y="-130" font-family="times" font-size="20.00" fill="#000000">c_{k-1}</text>
</g>
<!-- c_{k&#45;1}&#45;&gt;0 -->
<g id="edge1" class="edge">
<title>c_{k-1}-&gt;0</title>
<path fill="none" stroke="#000000" d="M63.2921,-117.9255C73.5918,-110.6624 86.2258,-102.8713 98.732,-98 127.9983,-86.6004 216.1915,-74.8227 261.8924,-69.271"/>
<polygon fill="#c0c0c0" stroke="#000000" points="262.4993,-72.7234 272.0122,-68.0592 261.667,-65.7731 262.4993,-72.7234"/>
<text text-anchor="middle" x="156.499" y="-104" font-family="times" font-size="20.00" fill="#000000">sep_conv_5x5</text>
</g>
<!-- 1 -->
<g id="node4" class="node">
<title>1</title>
<polygon fill="#add8e6" stroke="#000000" stroke-width="2" points="535.334,-144 499.334,-144 499.334,-108 535.334,-108 535.334,-144"/>
<text text-anchor="middle" x="517.334" y="-120" font-family="times" font-size="20.00" fill="#000000">1</text>
</g>
<!-- c_{k&#45;1}&#45;&gt;1 -->
<g id="edge4" class="edge">
<title>c_{k-1}-&gt;1</title>
<path fill="none" stroke="#000000" d="M80.621,-135.156C174.7873,-133.1818 407.5891,-128.3009 488.8195,-126.5978"/>
<polygon fill="#c0c0c0" stroke="#000000" points="489.3208,-130.0882 499.2452,-126.3792 489.174,-123.0897 489.3208,-130.0882"/>
<text text-anchor="middle" x="290.033" y="-137" font-family="times" font-size="20.00" fill="#000000">sep_conv_3x3</text>
</g>
<!-- 2 -->
<g id="node5" class="node">
<title>2</title>
<polygon fill="#add8e6" stroke="#000000" stroke-width="2" points="757.095,-210 721.095,-210 721.095,-174 757.095,-174 757.095,-210"/>
<text text-anchor="middle" x="739.095" y="-186" font-family="times" font-size="20.00" fill="#000000">2</text>
</g>
<!-- c_{k&#45;1}&#45;&gt;2 -->
<g id="edge6" class="edge">
<title>c_{k-1}-&gt;2</title>
<path fill="none" stroke="#000000" d="M80.7865,-144.1417C86.7876,-145.1981 92.9104,-146.1918 98.732,-147 157.7535,-155.1942 172.8868,-154.0203 232.266,-159 374.8942,-170.9611 410.466,-175.364 553.334,-184 608.961,-187.3625 674.0421,-189.8281 710.5277,-191.0773"/>
<polygon fill="#c0c0c0" stroke="#000000" points="710.7787,-194.5876 720.8907,-191.4255 711.0139,-187.5915 710.7787,-194.5876"/>
<text text-anchor="middle" x="423.567" y="-185" font-family="times" font-size="20.00" fill="#000000">sep_conv_3x3</text>
</g>
<!-- 0&#45;&gt;1 -->
<g id="edge3" class="edge">
<title>0-&gt;1</title>
<path fill="none" stroke="#000000" d="M308.2744,-66.1167C343.3107,-66.9622 421.8188,-71.8925 481.334,-98 484.5493,-99.4105 487.7309,-101.1724 490.794,-103.1218"/>
<polygon fill="#c0c0c0" stroke="#000000" points="488.8614,-106.0421 499.0421,-108.9755 492.9128,-100.3336 488.8614,-106.0421"/>
<text text-anchor="middle" x="423.567" y="-104" font-family="times" font-size="20.00" fill="#000000">sep_conv_5x5</text>
</g>
<!-- c_{k} -->
<g id="node7" class="node">
<title>c_{k}</title>
<polygon fill="#eee8aa" stroke="#000000" stroke-width="2" points="1079.967,-121 1015.819,-121 1015.819,-85 1079.967,-85 1079.967,-121"/>
<text text-anchor="middle" x="1047.893" y="-97" font-family="times" font-size="20.00" fill="#000000">c_{k}</text>
</g>
<!-- 0&#45;&gt;c_{k} -->
<g id="edge9" class="edge">
<title>0-&gt;c_{k}</title>
<path fill="none" stroke="#000000" d="M308.2313,-62.7633C346.6988,-56.2123 439.1618,-42 517.334,-42 517.334,-42 517.334,-42 960.856,-42 986.9385,-42 1010.7532,-60.5974 1026.8526,-77.2548"/>
<polygon fill="#c0c0c0" stroke="#000000" points="1024.3456,-79.6994 1033.6871,-84.698 1029.5016,-74.9649 1024.3456,-79.6994"/>
</g>
<!-- 1&#45;&gt;2 -->
<g id="edge5" class="edge">
<title>1-&gt;2</title>
<path fill="none" stroke="#000000" d="M535.5576,-131.9181C541.2232,-133.6635 547.5105,-135.5047 553.334,-137 601.7083,-149.421 615.6578,-145.1035 663.328,-160 679.8277,-165.156 697.6662,-172.5918 711.8872,-178.9981"/>
<polygon fill="#c0c0c0" stroke="#000000" points="710.5457,-182.2334 721.0937,-183.228 713.4682,-175.8726 710.5457,-182.2334"/>
<text text-anchor="middle" x="608.331" y="-166" font-family="times" font-size="20.00" fill="#000000">dil_conv_3x3</text>
</g>
<!-- 3 -->
<g id="node6" class="node">
<title>3</title>
<polygon fill="#add8e6" stroke="#000000" stroke-width="2" points="978.856,-144 942.856,-144 942.856,-108 978.856,-108 978.856,-144"/>
<text text-anchor="middle" x="960.856" y="-120" font-family="times" font-size="20.00" fill="#000000">3</text>
</g>
<!-- 1&#45;&gt;3 -->
<g id="edge7" class="edge">
<title>1-&gt;3</title>
<path fill="none" stroke="#000000" d="M535.5475,-126C604.4146,-126 849.2163,-126 932.7138,-126"/>
<polygon fill="#c0c0c0" stroke="#000000" points="932.7355,-129.5001 942.7355,-126 932.7354,-122.5001 932.7355,-129.5001"/>
<text text-anchor="middle" x="739.095" y="-132" font-family="times" font-size="20.00" fill="#000000">sep_conv_3x3</text>
</g>
<!-- 1&#45;&gt;c_{k} -->
<g id="edge10" class="edge">
<title>1-&gt;c_{k}</title>
<path fill="none" stroke="#000000" d="M535.6302,-123.7819C541.2987,-123.1446 547.5694,-122.4901 553.334,-122 726.133,-107.3083 769.509,-104.1133 942.856,-99 958.849,-98.5282 962.8627,-98.5371 978.856,-99 987.4815,-99.2497 996.7055,-99.6745 1005.5121,-100.1563"/>
<polygon fill="#c0c0c0" stroke="#000000" points="1005.4118,-103.6563 1015.5977,-100.7412 1005.8171,-96.668 1005.4118,-103.6563"/>
</g>
<!-- 2&#45;&gt;3 -->
<g id="edge8" class="edge">
<title>2-&gt;3</title>
<path fill="none" stroke="#000000" d="M757.0963,-183.228C772.2194,-176.1451 794.5546,-166.3459 814.862,-160 862.5322,-145.1035 876.4817,-149.421 924.856,-137 927.4948,-136.3224 930.2288,-135.5739 932.957,-134.7954"/>
<polygon fill="#c0c0c0" stroke="#000000" points="934.0449,-138.1234 942.6324,-131.9181 932.0496,-131.4138 934.0449,-138.1234"/>
<text text-anchor="middle" x="869.859" y="-166" font-family="times" font-size="20.00" fill="#000000">dil_conv_5x5</text>
</g>
<!-- 2&#45;&gt;c_{k} -->
<g id="edge11" class="edge">
<title>2-&gt;c_{k}</title>
<path fill="none" stroke="#000000" d="M757.2223,-194.0094C790.9905,-197.1475 865.4829,-201.2073 924.856,-184 961.5502,-173.3654 997.3159,-147.5601 1020.7416,-127.9108"/>
<polygon fill="#c0c0c0" stroke="#000000" points="1023.1885,-130.423 1028.4942,-121.2523 1018.6276,-125.1127 1023.1885,-130.423"/>
</g>
<!-- 3&#45;&gt;c_{k} -->
<g id="edge12" class="edge">
<title>3-&gt;c_{k}</title>
<path fill="none" stroke="#000000" d="M978.8901,-121.2344C986.7985,-119.1445 996.4406,-116.5966 1005.9797,-114.0758"/>
<polygon fill="#c0c0c0" stroke="#000000" points="1007.0323,-117.4179 1015.8062,-111.4791 1005.2438,-110.6502 1007.0323,-117.4179"/>
</g>
</g>
</svg>